<?xml version="1.0" encoding="UTF-8"?>
<svg xmlns="http://www.w3.org/2000/svg" xmlns:xlink="http://www.w3.org/1999/xlink" width="250px" height="318px" viewBox="0 0 250 318" version="1.1">
<g id="surface1">
<path style=" stroke:none;fill-rule:nonzero;fill:rgb(74.901962%,56.470591%,16.078432%);fill-opacity:1;" d="M 155.105469 0 L 0 0 L 0 47.773438 L 155.105469 47.773438 Z M 155.105469 0 "/>
<path style=" stroke:none;fill-rule:nonzero;fill:rgb(74.901962%,56.470591%,16.078432%);fill-opacity:1;" d="M 250 47.773438 L 250 0 L 225.128906 0 L 225.128906 31.414062 L 202.878906 31.414062 L 202.878906 0 L 174.082031 0 L 174.082031 47.773438 Z M 250 47.773438 "/>
<path style=" stroke:none;fill-rule:nonzero;fill:rgb(23.137255%,62.7451%,81.568629%);fill-opacity:1;" d="M 122.382812 318.0625 L 250 318.0625 L 250 281.414062 L 122.382812 281.414062 Z M 122.382812 318.0625 "/>
<path style=" stroke:none;fill-rule:nonzero;fill:rgb(23.137255%,62.7451%,81.568629%);fill-opacity:1;" d="M 0 281.414062 L 0 318.0625 L 100.128906 318.0625 L 100.128906 281.414062 Z M 0 281.414062 "/>
<path style=" stroke:none;fill-rule:nonzero;fill:rgb(0%,50.196081%,25.490198%);fill-opacity:1;" d="M 174.082031 125.652344 L 229.058594 125.652344 L 229.058594 148.558594 L 174.082031 148.558594 L 174.082031 208.769531 L 250 208.769531 L 250 66.753906 L 174.082031 66.753906 Z M 174.082031 125.652344 "/>
<path style=" stroke:none;fill-rule:nonzero;fill:rgb(0%,50.196081%,25.490198%);fill-opacity:1;" d="M 100.785156 227.746094 L 0 227.746094 L 0 263.085938 L 100.128906 263.085938 Z M 100.785156 227.746094 "/>
<path style=" stroke:none;fill-rule:nonzero;fill:rgb(74.901962%,56.470591%,16.078432%);fill-opacity:1;" d="M 64.789062 131.542969 L 89.660156 131.542969 L 89.660156 150.523438 L 106.019531 150.523438 L 106.019531 115.183594 L 64.789062 115.183594 Z M 64.789062 131.542969 "/>
<path style=" stroke:none;fill-rule:nonzero;fill:rgb(0%,50.196081%,25.490198%);fill-opacity:1;" d="M 106.019531 150.523438 L 64.789062 150.523438 L 64.789062 115.183594 L 48.429688 131.542969 L 48.429688 165.574219 L 89.660156 165.574219 Z M 106.019531 150.523438 "/>
<path style=" stroke:none;fill-rule:nonzero;fill:rgb(74.901962%,56.470591%,16.078432%);fill-opacity:1;" d="M 34.03125 100.785156 L 121.074219 100.785156 L 121.074219 159.03125 L 155.105469 126.308594 L 155.105469 66.753906 L 34.03125 66.753906 L 26.179688 73.953125 L 34.03125 66.753906 Z M 34.03125 100.785156 "/>
<path style=" stroke:none;fill-rule:nonzero;fill:rgb(0%,50.196081%,25.490198%);fill-opacity:1;" d="M 155.105469 226.4375 L 155.105469 148.558594 L 122.382812 179.316406 L 34.03125 179.316406 L 34.03125 66.753906 L 26.179688 73.953125 L 0 100.128906 L 0 208.769531 L 122.382812 208.769531 L 122.382812 263.085938 L 250 263.085938 L 250 226.4375 Z M 155.105469 226.4375 "/>
</g>
</svg>
